<svg
  xmlns="http://www.w3.org/2000/svg" version="1.1"
  xmlns:xlink="http://www.w3.org/1999/xlink"
  xmlns:svgjs="http://svgjs.com/svgjs" height="67" width="327.09999084472656">
  <defs id="SvgjsDefs6306"></defs>
  <g id="SvgjsG6307" rel="mainfill" name="main_text"
    xmlns:name="main_text" transform="translate(80.18000006675719,-203.77772154963355)" fill="#ffffff">
    <path d="M13.68 234.79L11.29 234.79L11.29 220.28L13.57 220.28C14.44 220.28 14.67 219.86 14.67 219.18L14.67 216.10C14.67 215.41 14.44 215.00 13.57 215.00L3.00 215.00C2.13 215.00 1.90 215.41 1.90 216.10L1.90 219.18C1.90 219.86 2.13 220.28 3.00 220.28L5.32 220.28L5.32 234.79L2.93 234.79C2.05 234.79 1.82 235.21 1.82 235.90L1.82 238.90C1.82 239.58 2.05 240 2.93 240L13.68 240C14.55 240 14.78 239.58 14.78 238.90L14.78 235.90C14.78 235.21 14.55 234.79 13.68 234.79ZM40.17 238.78L34.81 230.99C37.16 230.20 40.09 227.42 40.09 223.43C40.09 221 39.29 218.83 37.89 217.47C36.29 215.87 34.47 215.03 30.32 215.03L20.75 215.03C19.87 215.03 19.68 215.45 19.68 216.14L19.68 238.90C19.68 239.77 20.06 240 20.75 240L24.51 240C25.19 240 25.61 239.77 25.61 238.90L25.61 220.35L30.67 220.35C32.64 220.35 34.16 221.61 34.16 223.58C34.16 225.37 32.41 226.66 30.55 226.66L29.79 226.66C28.92 226.66 28.69 227.08 28.69 227.76L28.69 230.80C28.69 231.87 28.77 232.29 29.11 232.74L33.21 238.86C33.74 239.66 34.20 240 35.11 240L39.60 240C40.32 240 40.51 239.32 40.17 238.78ZM65.82 215.00L60.69 215.00C59.81 215.00 59.55 215.07 58.79 215.91L50.92 224.57L50.92 216.10C50.92 215.22 50.50 215.00 49.86 215.00L46.09 215.00C45.37 215.00 44.99 215.22 44.99 216.10L44.99 238.90C44.99 239.77 45.37 240 46.09 240L49.86 240C50.50 240 50.92 239.77 50.92 238.90L50.92 232.13L53.28 229.66C55.33 233.08 58.71 238.78 58.71 238.78C59.20 239.58 59.70 240 60.61 240L65.25 240C65.97 240 66.12 239.28 65.82 238.78L57.65 225.33L66.20 216.06C66.54 215.72 66.54 215.00 65.82 215.00ZM81.62 225.48C80.10 224.88 74.52 224.04 74.52 221.72C74.52 220.01 76.61 219.52 77.86 219.52C79.00 219.52 80.37 219.86 81.09 220.54C81.55 221 81.74 221.30 81.89 221.68C82.08 222.18 82.19 222.71 82.92 222.71L86.64 222.71C87.51 222.71 87.74 222.56 87.74 221.65C87.74 216.63 82.46 214.43 77.63 214.43C72.88 214.62 68.40 217.05 68.40 221.99C68.40 226.81 71.93 228.33 75.77 229.55C79.00 230.58 82.38 230.61 82.38 232.74C82.38 234.87 80.71 235.33 78.66 235.33C77.25 235.33 75.70 234.98 74.94 234.07C74.44 233.50 74.25 233.01 74.21 232.51C74.14 231.56 73.72 231.45 72.85 231.45L69.16 231.45C68.29 231.45 68.06 231.64 68.06 232.51C68.06 237.83 73.53 240.57 78.28 240.57C84.13 240.57 88.39 237.99 88.39 232.59C88.39 227.42 84.36 226.32 81.62 225.48ZM115.25 214.96L111.61 214.96C110.35 214.96 110.16 215.79 109.90 216.25L104.65 225.60L99.45 216.25C99.14 215.79 98.99 214.96 97.70 214.96L93.94 214.96C93.06 214.96 92.83 215.38 92.83 216.06L92.83 238.90C92.83 239.77 93.25 240 93.94 240L97.70 240C98.38 240 98.80 239.77 98.80 238.90L98.80 226.02L102.64 232.67C102.83 232.97 103.13 233.46 103.70 233.46L105.60 233.46C106.17 233.46 106.51 232.97 106.70 232.67L110.50 226.02L110.50 238.90C110.50 239.77 110.92 240 111.61 240L115.25 240C115.94 240 116.36 239.77 116.36 238.90L116.36 216.06C116.36 215.38 116.13 214.96 115.25 214.96ZM133.76 225.48C132.24 224.88 126.65 224.04 126.65 221.72C126.65 220.01 128.74 219.52 130.00 219.52C131.14 219.52 132.51 219.86 133.23 220.54C133.68 221 133.87 221.30 134.03 221.68C134.22 222.18 134.33 222.71 135.05 222.71L138.78 222.71C139.65 222.71 139.88 222.56 139.88 221.65C139.88 216.63 134.60 214.43 129.77 214.43C125.02 214.62 120.54 217.05 120.54 221.99C120.54 226.81 124.07 228.33 127.91 229.55C131.14 230.58 134.52 230.61 134.52 232.74C134.52 234.87 132.85 235.33 130.80 235.33C129.39 235.33 127.83 234.98 127.07 234.07C126.58 233.50 126.39 233.01 126.35 232.51C126.27 231.56 125.86 231.45 124.98 231.45L121.30 231.45C120.42 231.45 120.19 231.64 120.19 232.51C120.19 237.83 125.67 240.57 130.42 240.57C136.27 240.57 140.52 237.99 140.52 232.59C140.52 227.42 136.50 226.32 133.76 225.48ZM163.10 234.68L150.97 234.68L150.97 229.66L161.16 229.66C162.03 229.66 162.26 229.25 162.26 228.56L162.26 225.60C162.26 224.91 162.03 224.50 161.16 224.50L150.97 224.50L150.97 220.35L162.45 220.35C163.32 220.35 163.55 219.94 163.55 219.25L163.55 216.10C163.55 215.41 163.32 215.00 162.45 215.00L146.07 215.00C145.20 215.00 144.97 215.41 144.97 216.10L144.97 238.90C144.97 239.58 145.20 240 146.07 240L163.10 240C163.97 240 164.20 239.58 164.20 238.90L164.20 235.78C164.20 235.10 163.97 234.68 163.10 234.68ZM180.65 227.19L187.49 216.06C187.76 215.64 187.57 215.00 186.92 215.00L182.48 215.00C181.72 215.00 181.45 215.30 180.92 216.10L177.16 222.22L173.36 216.10C172.86 215.30 172.56 215.00 171.84 215.00L167.35 215.00C166.71 215.00 166.55 215.64 166.78 216.06L173.66 227.19L166.90 238.82C166.59 239.28 166.78 240 167.35 240L171.68 240C172.52 240 172.86 239.92 173.36 238.94L177.16 232.17L180.92 238.94C181.45 239.92 181.75 240 182.59 240L186.92 240C187.49 240 187.68 239.28 187.38 238.82ZM195.74 233.58L191.52 233.58C190.84 233.58 190.42 233.81 190.42 234.68L190.42 238.90C190.42 239.77 190.84 240 191.52 240L195.74 240C196.42 240 196.84 239.77 196.84 238.90L196.84 234.68C196.84 233.81 196.42 233.58 195.74 233.58ZM222.30 238.78L216.94 230.99C219.30 230.20 222.22 227.42 222.22 223.43C222.22 221 221.43 218.83 220.02 217.47C218.42 215.87 216.60 215.03 212.46 215.03L202.88 215.03C202.01 215.03 201.82 215.45 201.82 216.14L201.82 238.90C201.82 239.77 202.20 240 202.88 240L206.64 240C207.33 240 207.75 239.77 207.75 238.90L207.75 220.35L212.80 220.35C214.78 220.35 216.30 221.61 216.30 223.58C216.30 225.37 214.55 226.66 212.69 226.66L211.93 226.66C211.05 226.66 210.82 227.08 210.82 227.76L210.82 230.80C210.82 231.87 210.90 232.29 211.24 232.74L215.35 238.86C215.88 239.66 216.33 240 217.25 240L221.73 240C222.45 240 222.64 239.32 222.30 238.78ZM245.82 215.00L242.06 215.00C241.38 215.00 240.96 215.22 240.96 216.10L240.96 231.53C240.96 233.92 239.36 235.29 236.85 235.29C234.35 235.29 232.79 233.92 232.79 231.53L232.79 216.10C232.79 215.22 232.37 215.00 231.69 215.00L227.92 215.00C227.24 215.00 226.82 215.22 226.82 216.10L226.82 232.36C226.82 238.33 232.33 240.57 236.85 240.57C241.38 240.57 246.92 238.33 246.92 232.36L246.92 216.10C246.92 215.22 246.51 215.00 245.82 215.00Z" fill="#ffffff" style="fill: rgb(255, 255, 255);"></path>
  </g>
  <g id="SvgjsG6308" rel="mainfill" name="slogan_text"
    xmlns:name="slogan_text" transform="translate(82.37999111413954,-184.09771361506324)" fill="#f4f4f4">
    <path d="M2.47 238.18L2.47 232.72L7.01 232.72L7.01 238.18ZM7.92 240L8.82 239.10L8.82 231.82L7.92 230.89L1.55 230.89L0.65 231.82L0.65 239.10L1.55 240ZM13.50 238.18L13.50 236.37L18.04 236.37L18.04 238.18ZM18.95 240L19.85 239.10L19.85 235.46L18.95 234.55L13.50 234.55L13.50 232.72L19.41 232.72L19.41 230.89L11.68 230.89L11.68 240ZM25.82 238.18L25.82 235.46L30.36 235.46L30.36 238.18ZM31.29 240L32.18 239.10L32.18 234.55L31.29 233.64L25.82 233.64L25.82 230.89L22.19 230.89L22.19 232.72L24.01 232.72L24.01 240ZM36.74 235.46L36.74 232.72L41.28 232.72L41.28 235.46ZM36.74 240L36.74 239.10L38.54 237.28L41.28 237.28L41.28 240L43.08 240L43.08 230.89L35.81 230.89L34.92 231.82L34.92 236.37L35.81 237.28L34.92 238.18L34.92 240ZM47.77 238.18L47.77 236.37L52.31 236.37L52.31 238.18ZM47.77 234.55L47.77 232.72L52.31 232.72L52.31 234.55ZM53.22 240L54.12 239.10L54.12 236.37L53.22 235.46L54.12 234.55L54.12 231.82L53.22 230.89L45.95 230.89L45.95 240ZM58.67 240L58.67 234.54L60.48 232.72L63.21 232.72L63.21 240L65.02 240L65.02 230.89L59.57 230.89L56.85 233.63L56.85 240ZM75.61 240L75.61 238.18L69.70 238.18L69.70 236.37L75.15 236.37L75.15 234.55L69.70 234.55L69.70 232.72L75.61 232.72L75.61 230.89L67.88 230.89L67.88 240ZM80.16 240L80.16 236.37L84.70 236.37L84.70 240L86.51 240L86.51 230.89L84.70 230.89L84.70 234.55L80.16 234.55L80.16 230.89L78.34 230.89L78.34 240ZM91.19 240L95.73 233.92L95.73 240L97.54 240L97.54 230.89L95.73 230.89L91.19 236.96L91.19 230.89L89.37 230.89L89.37 240ZM102.22 235.46L102.22 232.72L106.76 232.72L106.76 235.46ZM102.22 240L102.22 239.10L104.03 237.28L106.76 237.28L106.76 240L108.57 240L108.57 230.89L101.30 230.89L100.40 231.82L100.40 236.37L101.30 237.28L100.40 238.18L100.40 240ZM120.02 240L124.56 233.92L124.56 240L126.37 240L126.37 230.89L124.56 230.89L120.02 236.96L120.02 230.89L118.20 230.89L118.20 240ZM143.01 240L143.90 239.10L143.90 236.37L143.01 235.46L143.90 234.55L143.90 231.82L143.01 230.89L136.63 230.89L135.73 231.82L135.73 233.63L137.55 233.63L137.55 232.72L142.09 232.72L142.09 234.55L139.36 234.55L139.36 236.37L142.09 236.37L142.09 238.18L137.55 238.18L137.55 237.28L135.73 237.28L135.73 239.10L136.63 240ZM148.59 240L148.59 236.37L153.13 236.37L153.13 240L154.93 240L154.93 230.89L153.13 230.89L153.13 234.55L148.59 234.55L148.59 230.89L146.76 230.89L146.76 240ZM159.49 235.46L159.49 234.55L161.30 232.72L164.03 232.72L164.03 235.46ZM159.49 240L159.49 237.28L164.03 237.28L164.03 240L165.84 240L165.84 230.89L160.38 230.89L157.67 233.64L157.67 240ZM170.52 240L170.52 236.37L173.24 236.37L175.06 238.18L175.06 240L176.87 240L176.87 237.28L175.06 235.46L176.87 233.64L176.87 230.89L175.06 230.89L175.06 232.73L173.24 234.55L170.52 234.55L170.52 230.89L168.70 230.89L168.70 240ZM181.42 238.18L181.42 232.72L185.96 232.72L185.96 238.18ZM186.87 240L187.77 239.10L187.77 231.82L186.87 230.89L180.50 230.89L179.60 231.82L179.60 239.10L180.50 240ZM192.45 240L192.45 233.86L194.88 237.36L196.41 237.36L198.79 233.86L198.79 240L200.61 240L200.61 230.89L198.85 230.89L195.63 235.30L192.45 230.89L190.63 230.89L190.63 240ZM210.74 240L211.64 239.10L211.64 237.28L209.83 237.28L209.83 238.18L205.29 238.18L205.29 232.72L209.83 232.72L209.83 233.63L211.64 233.63L211.64 231.82L210.74 230.89L204.37 230.89L203.47 231.82L203.47 239.10L204.37 240ZM218.99 240L218.99 232.72L222.15 232.72L222.15 230.89L213.98 230.89L213.98 232.72L217.17 232.72L217.17 240ZM226.44 238.18L226.44 236.37L230.98 236.37L230.98 238.18ZM226.44 234.55L226.44 232.72L230.98 232.72L230.98 234.55ZM231.89 240L232.79 239.10L232.79 236.37L231.89 235.46L232.79 234.55L232.79 231.82L231.89 230.89L224.62 230.89L224.62 240ZM237.34 235.46L237.34 234.55L239.15 232.72L241.88 232.72L241.88 235.46ZM237.34 240L237.34 237.28L241.88 237.28L241.88 240L243.69 240L243.69 230.89L238.24 230.89L235.52 233.64L235.52 240Z" fill="#f4f4f4" style="fill: rgb(244, 244, 244);"></path>
  </g>
  <g id="SvgjsG6309" rel="mainfill" name="symbol"
    xmlns:name="symbol_mainfill" transform="translate(-0.0006935335766454714,-0.5066316843052235) scale(0.737454849719359)" fill="#ffffff">
    <g fill="#ffffff">
      <path d="M39.771,27.556h10.793l5.329,4.853c0.317,0.29,0.716,0.433,1.115,0.433c0.451,0,0.899-0.182,1.227-0.542   c0.617-0.677,0.568-1.727-0.11-2.343l-5.804-5.285c-0.305-0.279-0.704-0.433-1.117-0.433H39.771c-1.391,0-2.521-1.13-2.521-2.52   V6.524c0-1.389,1.13-2.52,2.521-2.52h22.667c1.389,0,2.521,1.131,2.521,2.52V20.06c0,1.389-1.132,2.521-2.521,2.521H60.11   c-0.917,0-1.658,0.742-1.658,1.658s0.741,1.658,1.658,1.658h2.328c3.219,0,5.837-2.618,5.837-5.837V6.524   c0-3.218-2.618-5.837-5.837-5.837H39.771c-3.22,0-5.839,2.619-5.839,5.837v15.194C33.932,24.938,36.551,27.556,39.771,27.556z" fill="#ffffff" style="fill: rgb(255, 255, 255);"></path>
      <path d="M8.494,20.494c0.324,0.451,0.832,0.692,1.35,0.692c0.333,0,0.671-0.102,0.966-0.312c0.743-0.533,0.913-1.57,0.38-2.314   l-2.997-4.178c-0.533-0.741-1.565-0.915-2.314-0.38c-0.743,0.534-0.916,1.57-0.38,2.314L8.494,20.494z" fill="#ffffff" style="fill: rgb(255, 255, 255);"></path>
      <path d="M17.612,19.265c0.917,0,1.659-0.743,1.659-1.659v-6.634c0-0.916-0.741-1.658-1.659-1.658c-0.916,0-1.659,0.742-1.659,1.658   v6.634C15.953,18.522,16.696,19.265,17.612,19.265z" fill="#ffffff" style="fill: rgb(255, 255, 255);"></path>
      <path d="M24.894,20.988c0.248,0.135,0.518,0.198,0.782,0.198c0.591,0,1.164-0.317,1.462-0.874l2.242-4.177   c0.435-0.808,0.132-1.812-0.677-2.246c-0.807-0.435-1.812-0.13-2.244,0.676l-2.242,4.177C23.782,19.55,24.084,20.555,24.894,20.988   z" fill="#ffffff" style="fill: rgb(255, 255, 255);"></path>
      <circle cx="68.378" cy="38.078" r="1.866"></circle>
      <circle cx="25.047" cy="38.078" r="1.866"></circle>
      <path d="M89.335,49.279c-0.9-0.073-1.716,0.601-1.792,1.514l-1.651,19.565c0,0.036-0.295,3.637-2.421,3.637h-0.029   c0.745-1.668,0.782-3.377,0.78-3.625l0.016-13.543c0-0.105-0.01-0.212-0.031-0.315c-0.039-0.199-0.844-4.187-3.495-6.981   c3.446-2.496,5.588-6.508,5.588-10.875c0-7.416-6.033-13.448-13.45-13.448c-7.415,0-13.449,6.033-13.449,13.448   c0,5.435,3.256,10.254,8.123,12.348c-0.006,0.022-0.021,0.041-0.024,0.065l-1.366,8.001h-9.509c-0.36,0-0.714,0.118-1.003,0.336   c-0.232,0.178-2.278,1.811-2.278,4.639c0,0.618,0.089,1.162,0.219,1.659H37.222c0.136-0.499,0.225-1.045,0.225-1.659   c0-2.789-1.598-4.328-2.541-4.8c-0.231-0.115-0.483-0.175-0.741-0.175h-6.432l-0.953-8.479c0-0.002-0.002-0.004-0.002-0.006   c4.376-2.273,7.245-6.829,7.245-11.93c0-7.416-6.034-13.448-13.45-13.448c-7.417,0-13.45,6.033-13.45,13.448   c0,3.801,1.624,7.333,4.314,9.836c-2.799,3.027-3.195,7.991-3.216,8.336l0.016,13.535c0,0.255,0.035,1.965,0.78,3.633H8.988   c-3.028,0-3.601-3.371-3.648-3.7L3.309,50.76c-0.095-0.909-0.9-1.575-1.821-1.478c-0.91,0.095-1.573,0.911-1.478,1.82l2.035,19.581   c0.208,1.562,1.129,4.065,3.208,5.508L1.813,87.54c-0.266,0.879,0.229,1.805,1.105,2.07c0.162,0.048,0.322,0.071,0.481,0.071   c0.714,0,1.371-0.462,1.589-1.18l3.4-11.223c0.196,0.016,0.392,0.033,0.6,0.033h3.648c0.142,0,0.268-0.047,0.4-0.08   c0.287,0.046,0.582,0.08,0.889,0.08h11.981l0.005,9.69c0.138,1.581,1.552,3.934,4.882,3.934c3.3,0,4.727-2.425,5.02-3.706   c0.027-0.123,0.043-0.247,0.043-0.371V74.703c0.041-1.417-0.437-3.712-2-5.684h0.318c0.006,0,0.01-0.002,0.014-0.002   c0.002,0,0.006,0.002,0.01,0.002h22.411h0.472c-2.604,2.493-2.954,5.286-2.971,5.464c-0.006,0.058-0.01,0.115-0.01,0.173v12.203   c0,0.289,0.074,0.572,0.219,0.824c0.076,0.132,1.905,3.253,5.67,3.253c3.247,0,5.039-2.151,5.586-3.421   c0.09-0.209,0.136-0.432,0.136-0.656v-9.547h12.823c0.149,0,0.289-0.027,0.435-0.039l3.02,11.181   c0.202,0.74,0.869,1.228,1.601,1.228c0.144,0,0.291-0.02,0.435-0.058c0.885-0.239,1.406-1.151,1.17-2.034l-2.776-10.277h1.054   c4.188,0,5.58-4.407,5.729-6.706l1.646-19.534C90.925,50.159,90.248,49.356,89.335,49.279z M33.587,65.703H22.446l-2.712-6.378   c-0.357-0.846-1.333-1.235-2.174-0.879c-0.842,0.359-1.236,1.332-0.877,2.175l3.141,7.39c0.26,0.611,0.861,1.009,1.526,1.009h6.684   c4.423,1.284,4.512,5.159,4.506,5.637v11.948c-0.155,0.391-0.582,1.015-1.746,1.015c-1.134,0-1.483-0.469-1.571-0.888V75.653   c0-0.915-0.743-1.658-1.658-1.658h-13.64c-2.324,0-2.371-3.48-2.371-3.629l-0.019-13.417c0.099-1.315,0.785-4.82,2.661-6.488   c0.305,0.164,0.598,0.349,0.916,0.489c0.838,0.376,1.818-0.006,2.19-0.84c0.371-0.839-0.004-1.818-0.842-2.189   c-3.657-1.625-6.019-5.263-6.019-9.266c0-5.586,4.544-10.131,10.133-10.131c4.873,0,8.954,3.458,9.916,8.049   c-0.485,0.338-0.824,0.871-0.824,1.505c0,0.691,0.395,1.271,0.956,1.594c-0.079,0.795-0.219,1.575-0.475,2.311   c-0.479,0.304-2.118,1.152-3.928-0.145c-0.747-0.534-1.783-0.361-2.316,0.38c-0.534,0.745-0.363,1.78,0.382,2.314   c1.17,0.839,2.343,1.193,3.439,1.279c-1.241,1.244-2.799,2.188-4.591,2.651c-0.886,0.23-1.418,1.135-1.189,2.022   c0.194,0.746,0.867,1.242,1.604,1.242c0.008,0,0.014-0.004,0.021-0.004l1.034,9.189c0.095,0.839,0.805,1.473,1.649,1.473h7.353   c0.223,0.249,0.526,0.753,0.526,1.658C34.13,64.918,33.816,65.438,33.587,65.703z M80.905,70.366c0,0.148-0.047,3.629-2.371,3.629   H64.05c-0.915,0-1.657,0.743-1.657,1.658v10.777c-0.275,0.399-0.993,1.188-2.403,1.188c-1.331,0-2.194-0.823-2.572-1.283V74.769   c0.087-0.529,0.918-4.298,6.601-5.749h8.589c0.665,0,1.267-0.397,1.527-1.009l3.138-7.39c0.359-0.843-0.035-1.817-0.879-2.175   c-0.837-0.356-1.815,0.035-2.173,0.879l-2.711,6.378H57.417h-0.248c-0.206-0.241-0.509-0.748-0.509-1.659   c0-0.742,0.356-1.319,0.638-1.658H67.53c0.809,0,1.499-0.583,1.636-1.38l1.6-9.381c0.01-0.058-0.01-0.114-0.006-0.173   c0.339-0.217,0.613-0.545,0.722-0.967c0.229-0.888-0.305-1.792-1.188-2.022c-1.792-0.464-3.351-1.407-4.592-2.651   c1.097-0.086,2.271-0.441,3.438-1.279c0.743-0.534,0.915-1.57,0.38-2.314c-0.532-0.743-1.567-0.912-2.314-0.38   c-1.786,1.281-3.397,0.481-3.927,0.147c-0.255-0.736-0.395-1.518-0.474-2.313c0.56-0.323,0.954-0.903,0.954-1.594   c0-0.634-0.338-1.167-0.825-1.505c0.963-4.591,5.044-8.049,9.916-8.049c5.589,0,10.134,4.544,10.134,10.131   c0,4.004-2.361,7.641-6.017,9.266c-0.839,0.371-1.213,1.351-0.843,2.189c0.242,0.542,0.749,0.865,1.298,0.942   c2.384,1.682,3.326,5.213,3.499,5.95L80.905,70.366z" fill="#ffffff" style="fill: rgb(255, 255, 255);"></path>
      <path d="M59.64,12.553c-0.047-1.829-0.809-3.406-2.203-4.559c-1.756-1.451-4.57-1.445-6.329-0.045   c-1.103-0.88-2.546-1.28-4.018-1.012c-1.514,0.273-2.755,1.136-3.589,2.499c-1.453,2.386-0.935,4.339-0.242,5.557   c0.461,0.813,1.055,1.607,1.825,2.432c1.348,1.431,2.924,2.774,5.023,4.272c0.268,0.174,0.681,0.302,0.999,0.302   c0.345,0,0.813-0.174,1.094-0.375c1.815-1.292,3.313-2.546,4.575-3.835c0.743-0.758,1.589-1.694,2.228-2.896   C59.311,14.31,59.663,13.517,59.64,12.553z M56.07,13.34c-0.438,0.826-1.088,1.538-1.663,2.126   c-0.938,0.956-1.991,1.868-3.304,2.853c-1.443-1.083-2.602-2.103-3.599-3.162c-0.584-0.627-1.03-1.217-1.361-1.801   c-0.287-0.505-0.462-1.121,0.19-2.191c0.337-0.552,0.766-0.859,1.348-0.964c0.106-0.02,0.213-0.029,0.318-0.029   c0.64,0,1.212,0.365,1.543,0.999l0.105,0.2c0.296,0.543,0.92,0.854,1.491,0.865c0.621-0.014,1.182-0.372,1.453-0.928   c0.13-0.265,0.266-0.462,0.437-0.634c0.576-0.583,1.668-0.642,2.295-0.121c0.659,0.545,0.977,1.208,0.998,2.083   C56.326,12.831,56.18,13.132,56.07,13.34z" fill="#ff0519" style="fill: rgb(255, 5, 25);"></path>
      <path d="M53.379,47.133c-0.165-0.899-1.016-1.497-1.931-1.332c-2.63,0.482-4.353,2.034-5.446,3.822   c-1.095-1.788-2.819-3.34-5.445-3.822c-0.914-0.165-1.767,0.433-1.93,1.332c-0.167,0.901,0.431,1.765,1.331,1.93   c4.052,0.744,4.367,5.743,4.386,6.134v2.86c0,0.916,0.743,1.659,1.659,1.659c0.917,0,1.658-0.743,1.658-1.659v-2.861   c0.02-0.39,0.332-5.389,4.386-6.133C52.948,48.897,53.543,48.034,53.379,47.133z" fill="#ffffff" style="fill: rgb(255, 255, 255);"></path>
      <path d="M51.613,54.145c-0.91-0.117-1.739,0.53-1.854,1.437l-0.61,4.853c-0.382,0.453-2.082,1.123-3.146,1.123   c-1.093,0-2.856-0.706-3.139-1.055l-0.615-5.52c-0.103-0.91-0.91-1.565-1.834-1.465c-0.91,0.102-1.563,0.922-1.462,1.831   l0.632,5.673c0.006,0.056,0.016,0.11,0.027,0.164c0.564,2.627,4.745,3.688,6.392,3.688c1.65,0,5.834-1.063,6.412-3.829l0.637-5.048   C53.165,55.089,52.521,54.259,51.613,54.145z" fill="#ffffff" style="fill: rgb(255, 255, 255);"></path>
    </g>
  </g>
</svg>