<?xml version="1.0" standalone="no"?>
<!DOCTYPE svg PUBLIC "-//W3C//DTD SVG 20010904//EN"
 "http://www.w3.org/TR/2001/REC-SVG-20010904/DTD/svg10.dtd">
<svg version="1.0" xmlns="http://www.w3.org/2000/svg"
 width="124.000000pt" height="124.000000pt" viewBox="0 0 124.000000 124.000000"
 preserveAspectRatio="xMidYMid meet">
<metadata>
Created by potrace 1.11, written by Peter Selinger 2001-2013
</metadata>
<g transform="translate(0.000000,124.000000) scale(0.100000,-0.100000)"
fill="#000000" stroke="none">
<path d="M235 1149 c-108 -37 -165 -118 -170 -239 -6 -186 116 -314 488 -514
l69 -37 86 47 c232 126 385 251 438 361 25 50 29 70 29 143 0 98 -19 145 -79
198 -93 81 -294 80 -425 -2 l-43 -28 -57 30 c-116 62 -232 76 -336 41z"/>
<path d="M22 450 c0 -198 2 -360 6 -360 4 0 32 19 62 43 30 24 111 85 180 137
69 52 127 98 130 101 3 3 15 11 28 18 12 7 20 16 17 20 -2 5 -35 27 -72 49
-122 72 -235 178 -306 285 l-45 67 0 -360z"/>
<path d="M1175 747 c-61 -102 -278 -295 -365 -322 -11 -3 -20 -10 -20 -14 0
-4 33 -32 73 -63 39 -31 116 -90 170 -132 54 -42 100 -76 103 -76 3 0 19 -13
37 -30 17 -16 33 -27 36 -24 6 6 7 705 1 709 -3 2 -19 -20 -35 -48z"/>
<path d="M368 307 c-59 -45 -117 -90 -130 -99 -13 -9 -57 -43 -99 -75 -42 -32
-85 -63 -95 -70 -17 -10 -13 -12 24 -13 41 -1 1096 -2 1128 -1 8 1 -33 38 -93
83 -59 45 -112 86 -118 90 -5 5 -59 45 -119 90 l-108 81 -63 -31 c-34 -18 -67
-32 -74 -32 -6 0 -38 14 -71 30 -33 17 -63 30 -67 29 -4 0 -56 -37 -115 -82z"/>
</g>
</svg>
