<svg version="1.1" id="settings" xmlns="http://www.w3.org/2000/svg" viewBox="0 0 470.646 470.646" style="enable-background:new 0 0 470.646 470.646;" xml:space="preserve">
<g>
	<g>
		<path d="M283.569,145.724c-18.708,0-36.431,7.877-48.246,21.662c-12.8-13.785-29.538-21.662-48.246-21.662
			c-35.446,0-64.985,32.492-64.985,69.908c0,37.415,38.4,102.4,110.277,127.015l2.954,0.985l2.954-0.985
			c71.877-24.615,110.277-89.6,110.277-127.015C348.554,177.232,319.015,145.724,283.569,145.724z M235.323,322.954
			c-64.985-24.615-93.538-82.708-93.538-107.323c0-26.585,20.677-50.215,45.292-50.215c16.738,0,31.508,8.862,39.385,23.631
			l8.861,14.769l8.862-14.769c7.877-14.769,23.631-23.631,39.385-23.631c23.631,0,45.292,23.631,45.292,50.215
			C328.861,241.232,300.308,299.324,235.323,322.954z"/>
	</g>
</g>
<g>
	<g>
		<path d="M470.646,270.77v-70.892l-51.2-8.861c-4.923-19.692-11.815-38.4-22.646-55.139l30.523-42.338l-50.215-50.215
			L334.77,73.848c-17.723-10.831-35.446-17.723-55.139-22.646l-8.862-51.201h-70.892l-8.862,51.2
			c-19.692,4.923-38.4,11.815-55.138,22.646L93.538,43.324L43.323,93.54l30.523,42.338C63.016,153.6,56.123,171.324,51.2,191.016
			L0,199.878v70.892l51.2,8.861c4.923,19.692,11.815,38.4,22.646,55.139l-30.523,42.338l50.215,50.215l42.338-30.523
			c17.723,10.831,35.446,17.723,55.138,22.646l8.862,51.2h70.892l8.861-51.2c19.692-4.923,38.4-11.815,55.139-22.646l42.338,30.523
			l50.215-50.215L396.8,334.77c10.831-17.723,17.723-35.446,22.646-55.139L470.646,270.77z M401.723,269.785
			c-3.938,21.662-12.8,41.354-24.615,60.062l-3.938,5.908l28.554,39.385l-26.585,26.585l-39.385-28.554l-5.908,3.938
			c-17.723,11.815-38.4,20.677-60.062,24.615l-6.892,0.985l-7.877,48.246h-38.4l-7.877-48.246l-6.892-0.985
			c-21.662-3.938-41.354-12.8-60.062-24.615l-5.908-3.938l-39.385,28.554l-26.585-26.585l28.554-39.385l-3.938-5.908
			c-11.815-17.723-20.677-38.4-24.615-60.062l-0.985-6.892l-48.246-7.877v-38.4l48.246-7.877l0.985-6.892
			c3.938-21.662,12.8-41.354,24.615-60.062l3.938-5.908L69.907,96.493l26.585-26.585l39.385,28.554l5.908-3.938
			c17.723-11.815,38.4-20.677,60.062-24.615l6.892-0.985l7.877-48.246h38.4l7.877,48.246l6.892,0.985
			c21.662,3.938,41.354,12.8,60.062,24.615l5.908,3.938l39.385-28.554l26.585,26.585l-28.554,39.385l3.938,5.908
			c11.815,17.723,20.677,38.4,24.615,60.062l0.985,6.892l48.246,7.877v38.4l-48.246,7.877L401.723,269.785z"/>
	</g>
</g>
</svg>